<mxfile host="Electron" modified="2025-01-19T01:31:23.285Z" agent="Mozilla/5.0 (Windows NT 10.0; Win64; x64) AppleWebKit/537.36 (KHTML, like Gecko) draw.io/24.2.5 Chrome/120.0.6099.109 Electron/28.1.0 Safari/537.36" etag="6g2HMtTZ24LHKcnmPaHb" version="24.2.5" type="device">
  <diagram id="C5RBs43oDa-KdzZeNtuy" name="Page-1">
    <mxGraphModel dx="1185" dy="482" grid="1" gridSize="10" guides="1" tooltips="1" connect="1" arrows="1" fold="1" page="1" pageScale="1" pageWidth="827" pageHeight="850" math="0" shadow="0">
      <root>
        <mxCell id="WIyWlLk6GJQsqaUBKTNV-0" />
        <mxCell id="WIyWlLk6GJQsqaUBKTNV-1" parent="WIyWlLk6GJQsqaUBKTNV-0" />
        <mxCell id="WIyWlLk6GJQsqaUBKTNV-2" value="" style="rounded=0;html=1;jettySize=auto;orthogonalLoop=1;fontSize=11;endArrow=block;endFill=0;endSize=8;strokeWidth=1;shadow=0;labelBackgroundColor=none;edgeStyle=orthogonalEdgeStyle;" parent="WIyWlLk6GJQsqaUBKTNV-1" source="WIyWlLk6GJQsqaUBKTNV-3" target="WIyWlLk6GJQsqaUBKTNV-6" edge="1">
          <mxGeometry relative="1" as="geometry" />
        </mxCell>
        <mxCell id="WIyWlLk6GJQsqaUBKTNV-3" value="Página Inicial" style="rounded=1;whiteSpace=wrap;html=1;fontSize=12;glass=0;strokeWidth=1;shadow=0;fillColor=#f5f5f5;fontColor=#333333;strokeColor=#666666;" parent="WIyWlLk6GJQsqaUBKTNV-1" vertex="1">
          <mxGeometry x="24" y="60" width="120" height="40" as="geometry" />
        </mxCell>
        <mxCell id="mGsSKt4sZH0ih6lEQOX0-0" style="edgeStyle=orthogonalEdgeStyle;rounded=0;orthogonalLoop=1;jettySize=auto;html=1;exitX=1;exitY=0.5;exitDx=0;exitDy=0;entryX=0;entryY=0.5;entryDx=0;entryDy=0;" edge="1" parent="WIyWlLk6GJQsqaUBKTNV-1" source="WIyWlLk6GJQsqaUBKTNV-6" target="WIyWlLk6GJQsqaUBKTNV-12">
          <mxGeometry relative="1" as="geometry" />
        </mxCell>
        <mxCell id="mGsSKt4sZH0ih6lEQOX0-1" value="Sim" style="edgeLabel;html=1;align=center;verticalAlign=middle;resizable=0;points=[];" vertex="1" connectable="0" parent="mGsSKt4sZH0ih6lEQOX0-0">
          <mxGeometry x="-0.1954" y="2" relative="1" as="geometry">
            <mxPoint x="-19" y="-18" as="offset" />
          </mxGeometry>
        </mxCell>
        <mxCell id="mGsSKt4sZH0ih6lEQOX0-61" style="edgeStyle=orthogonalEdgeStyle;rounded=0;orthogonalLoop=1;jettySize=auto;html=1;exitX=0.5;exitY=1;exitDx=0;exitDy=0;" edge="1" parent="WIyWlLk6GJQsqaUBKTNV-1" source="WIyWlLk6GJQsqaUBKTNV-6" target="mGsSKt4sZH0ih6lEQOX0-54">
          <mxGeometry relative="1" as="geometry" />
        </mxCell>
        <mxCell id="mGsSKt4sZH0ih6lEQOX0-62" value="Não" style="edgeLabel;html=1;align=center;verticalAlign=middle;resizable=0;points=[];" vertex="1" connectable="0" parent="mGsSKt4sZH0ih6lEQOX0-61">
          <mxGeometry x="-0.8992" relative="1" as="geometry">
            <mxPoint x="13" as="offset" />
          </mxGeometry>
        </mxCell>
        <mxCell id="WIyWlLk6GJQsqaUBKTNV-6" value="Usuário&amp;nbsp;&lt;div&gt;é novo?&lt;/div&gt;" style="rhombus;whiteSpace=wrap;html=1;shadow=0;fontFamily=Helvetica;fontSize=12;align=center;strokeWidth=1;spacing=6;spacingTop=-4;" parent="WIyWlLk6GJQsqaUBKTNV-1" vertex="1">
          <mxGeometry x="184" y="40" width="100" height="80" as="geometry" />
        </mxCell>
        <mxCell id="mGsSKt4sZH0ih6lEQOX0-4" style="edgeStyle=orthogonalEdgeStyle;rounded=0;orthogonalLoop=1;jettySize=auto;html=1;exitX=1;exitY=0.5;exitDx=0;exitDy=0;entryX=0;entryY=0.5;entryDx=0;entryDy=0;" edge="1" parent="WIyWlLk6GJQsqaUBKTNV-1" source="WIyWlLk6GJQsqaUBKTNV-10" target="mGsSKt4sZH0ih6lEQOX0-3">
          <mxGeometry relative="1" as="geometry" />
        </mxCell>
        <mxCell id="mGsSKt4sZH0ih6lEQOX0-7" value="OK" style="edgeLabel;html=1;align=center;verticalAlign=middle;resizable=0;points=[];" vertex="1" connectable="0" parent="mGsSKt4sZH0ih6lEQOX0-4">
          <mxGeometry x="-0.2069" y="-2" relative="1" as="geometry">
            <mxPoint y="-22" as="offset" />
          </mxGeometry>
        </mxCell>
        <mxCell id="mGsSKt4sZH0ih6lEQOX0-9" value="" style="edgeStyle=orthogonalEdgeStyle;rounded=0;orthogonalLoop=1;jettySize=auto;html=1;" edge="1" parent="WIyWlLk6GJQsqaUBKTNV-1" source="WIyWlLk6GJQsqaUBKTNV-10">
          <mxGeometry relative="1" as="geometry">
            <mxPoint x="490" y="140" as="targetPoint" />
          </mxGeometry>
        </mxCell>
        <mxCell id="mGsSKt4sZH0ih6lEQOX0-46" value="Erro" style="edgeLabel;html=1;align=center;verticalAlign=middle;resizable=0;points=[];" vertex="1" connectable="0" parent="mGsSKt4sZH0ih6lEQOX0-9">
          <mxGeometry x="-0.1382" relative="1" as="geometry">
            <mxPoint x="20" as="offset" />
          </mxGeometry>
        </mxCell>
        <mxCell id="WIyWlLk6GJQsqaUBKTNV-10" value="Valida&amp;nbsp;&lt;div&gt;dados do cadastro&lt;/div&gt;" style="rhombus;whiteSpace=wrap;html=1;shadow=0;fontFamily=Helvetica;fontSize=12;align=center;strokeWidth=1;spacing=6;spacingTop=-4;" parent="WIyWlLk6GJQsqaUBKTNV-1" vertex="1">
          <mxGeometry x="440" y="40" width="100" height="80" as="geometry" />
        </mxCell>
        <mxCell id="mGsSKt4sZH0ih6lEQOX0-2" style="edgeStyle=orthogonalEdgeStyle;rounded=0;orthogonalLoop=1;jettySize=auto;html=1;exitX=1;exitY=0.5;exitDx=0;exitDy=0;entryX=0;entryY=0.5;entryDx=0;entryDy=0;" edge="1" parent="WIyWlLk6GJQsqaUBKTNV-1" source="WIyWlLk6GJQsqaUBKTNV-12" target="WIyWlLk6GJQsqaUBKTNV-10">
          <mxGeometry relative="1" as="geometry" />
        </mxCell>
        <mxCell id="WIyWlLk6GJQsqaUBKTNV-12" value="Formulário de cadastro" style="rounded=1;whiteSpace=wrap;html=1;fontSize=12;glass=0;strokeWidth=1;shadow=0;" parent="WIyWlLk6GJQsqaUBKTNV-1" vertex="1">
          <mxGeometry x="330" y="60" width="90" height="40" as="geometry" />
        </mxCell>
        <mxCell id="mGsSKt4sZH0ih6lEQOX0-6" style="edgeStyle=orthogonalEdgeStyle;rounded=0;orthogonalLoop=1;jettySize=auto;html=1;exitX=1;exitY=0.5;exitDx=0;exitDy=0;entryX=0;entryY=0.5;entryDx=0;entryDy=0;" edge="1" parent="WIyWlLk6GJQsqaUBKTNV-1" source="mGsSKt4sZH0ih6lEQOX0-3" target="mGsSKt4sZH0ih6lEQOX0-5">
          <mxGeometry relative="1" as="geometry" />
        </mxCell>
        <mxCell id="mGsSKt4sZH0ih6lEQOX0-3" value="E-mail de verificação é enviado" style="rounded=1;whiteSpace=wrap;html=1;fontSize=12;glass=0;strokeWidth=1;shadow=0;" vertex="1" parent="WIyWlLk6GJQsqaUBKTNV-1">
          <mxGeometry x="560" y="60" width="86" height="40" as="geometry" />
        </mxCell>
        <mxCell id="mGsSKt4sZH0ih6lEQOX0-58" style="edgeStyle=orthogonalEdgeStyle;rounded=0;orthogonalLoop=1;jettySize=auto;html=1;exitX=0.5;exitY=1;exitDx=0;exitDy=0;entryX=0.5;entryY=0;entryDx=0;entryDy=0;" edge="1" parent="WIyWlLk6GJQsqaUBKTNV-1" source="mGsSKt4sZH0ih6lEQOX0-5" target="mGsSKt4sZH0ih6lEQOX0-57">
          <mxGeometry relative="1" as="geometry" />
        </mxCell>
        <mxCell id="mGsSKt4sZH0ih6lEQOX0-5" value="Usuário entra no link de verificação" style="rounded=1;whiteSpace=wrap;html=1;fontSize=12;glass=0;strokeWidth=1;shadow=0;" vertex="1" parent="WIyWlLk6GJQsqaUBKTNV-1">
          <mxGeometry x="670" y="60" width="120" height="40" as="geometry" />
        </mxCell>
        <mxCell id="mGsSKt4sZH0ih6lEQOX0-12" style="edgeStyle=orthogonalEdgeStyle;rounded=0;orthogonalLoop=1;jettySize=auto;html=1;exitX=0;exitY=0.5;exitDx=0;exitDy=0;entryX=0.5;entryY=1;entryDx=0;entryDy=0;" edge="1" parent="WIyWlLk6GJQsqaUBKTNV-1" source="mGsSKt4sZH0ih6lEQOX0-10" target="WIyWlLk6GJQsqaUBKTNV-12">
          <mxGeometry relative="1" as="geometry" />
        </mxCell>
        <mxCell id="mGsSKt4sZH0ih6lEQOX0-10" value="E-mail já cadastrado,&lt;div&gt;Senha fraca, etc...&lt;/div&gt;" style="rounded=1;whiteSpace=wrap;html=1;fontSize=12;glass=0;strokeWidth=1;shadow=0;" vertex="1" parent="WIyWlLk6GJQsqaUBKTNV-1">
          <mxGeometry x="427.5" y="140" width="125" height="40" as="geometry" />
        </mxCell>
        <mxCell id="mGsSKt4sZH0ih6lEQOX0-43" value="Cadastro" style="swimlane;dashed=1;align=right;" vertex="1" parent="WIyWlLk6GJQsqaUBKTNV-1">
          <mxGeometry x="320" y="10" width="500" height="180" as="geometry" />
        </mxCell>
        <mxCell id="mGsSKt4sZH0ih6lEQOX0-45" value="Autenticação" style="swimlane;dashed=1;align=right;" vertex="1" parent="WIyWlLk6GJQsqaUBKTNV-1">
          <mxGeometry x="10" y="240" width="510" height="300" as="geometry" />
        </mxCell>
        <mxCell id="mGsSKt4sZH0ih6lEQOX0-15" style="edgeStyle=orthogonalEdgeStyle;rounded=0;orthogonalLoop=1;jettySize=auto;html=1;exitX=1;exitY=0.5;exitDx=0;exitDy=0;entryX=0;entryY=0.5;entryDx=0;entryDy=0;" edge="1" parent="mGsSKt4sZH0ih6lEQOX0-45" source="WIyWlLk6GJQsqaUBKTNV-7" target="mGsSKt4sZH0ih6lEQOX0-14">
          <mxGeometry relative="1" as="geometry" />
        </mxCell>
        <mxCell id="WIyWlLk6GJQsqaUBKTNV-7" value="Página de autenticação" style="rounded=1;whiteSpace=wrap;html=1;fontSize=12;glass=0;strokeWidth=1;shadow=0;" parent="mGsSKt4sZH0ih6lEQOX0-45" vertex="1">
          <mxGeometry x="30" y="90" width="80" height="40" as="geometry" />
        </mxCell>
        <mxCell id="mGsSKt4sZH0ih6lEQOX0-47" style="edgeStyle=orthogonalEdgeStyle;rounded=0;orthogonalLoop=1;jettySize=auto;html=1;exitX=0.5;exitY=0;exitDx=0;exitDy=0;entryX=0.5;entryY=1;entryDx=0;entryDy=0;" edge="1" parent="mGsSKt4sZH0ih6lEQOX0-45" source="WIyWlLk6GJQsqaUBKTNV-11" target="WIyWlLk6GJQsqaUBKTNV-7">
          <mxGeometry relative="1" as="geometry" />
        </mxCell>
        <mxCell id="WIyWlLk6GJQsqaUBKTNV-11" value="Exibe erro" style="rounded=1;whiteSpace=wrap;html=1;fontSize=12;glass=0;strokeWidth=1;shadow=0;" parent="mGsSKt4sZH0ih6lEQOX0-45" vertex="1">
          <mxGeometry x="30" y="190" width="80" height="40" as="geometry" />
        </mxCell>
        <mxCell id="mGsSKt4sZH0ih6lEQOX0-28" style="edgeStyle=orthogonalEdgeStyle;rounded=0;orthogonalLoop=1;jettySize=auto;html=1;entryX=0.5;entryY=0;entryDx=0;entryDy=0;exitX=0.5;exitY=1;exitDx=0;exitDy=0;" edge="1" parent="mGsSKt4sZH0ih6lEQOX0-45" source="mGsSKt4sZH0ih6lEQOX0-14" target="mGsSKt4sZH0ih6lEQOX0-27">
          <mxGeometry relative="1" as="geometry">
            <mxPoint x="227.17000000000002" y="165" as="sourcePoint" />
            <mxPoint x="207.17000000000002" y="174.9999999999999" as="targetPoint" />
            <Array as="points">
              <mxPoint x="187.17000000000002" y="160" />
              <mxPoint x="187.17000000000002" y="160" />
            </Array>
          </mxGeometry>
        </mxCell>
        <mxCell id="mGsSKt4sZH0ih6lEQOX0-31" value="Não" style="edgeLabel;html=1;align=center;verticalAlign=middle;resizable=0;points=[];" vertex="1" connectable="0" parent="mGsSKt4sZH0ih6lEQOX0-28">
          <mxGeometry x="-0.1604" y="1" relative="1" as="geometry">
            <mxPoint x="19" y="-8" as="offset" />
          </mxGeometry>
        </mxCell>
        <mxCell id="mGsSKt4sZH0ih6lEQOX0-14" value="Esqueceu&amp;nbsp;&lt;div&gt;a senha ?&lt;/div&gt;" style="rhombus;whiteSpace=wrap;html=1;shadow=0;fontFamily=Helvetica;fontSize=12;align=center;strokeWidth=1;spacing=6;spacingTop=-4;" vertex="1" parent="mGsSKt4sZH0ih6lEQOX0-45">
          <mxGeometry x="137.17000000000002" y="70" width="100" height="80" as="geometry" />
        </mxCell>
        <mxCell id="mGsSKt4sZH0ih6lEQOX0-35" style="edgeStyle=orthogonalEdgeStyle;rounded=0;orthogonalLoop=1;jettySize=auto;html=1;exitX=0;exitY=0.5;exitDx=0;exitDy=0;entryX=1;entryY=0.5;entryDx=0;entryDy=0;" edge="1" parent="mGsSKt4sZH0ih6lEQOX0-45" source="mGsSKt4sZH0ih6lEQOX0-27" target="WIyWlLk6GJQsqaUBKTNV-11">
          <mxGeometry relative="1" as="geometry" />
        </mxCell>
        <mxCell id="mGsSKt4sZH0ih6lEQOX0-37" value="Não" style="edgeLabel;html=1;align=center;verticalAlign=middle;resizable=0;points=[];" vertex="1" connectable="0" parent="mGsSKt4sZH0ih6lEQOX0-35">
          <mxGeometry x="-0.3885" y="1" relative="1" as="geometry">
            <mxPoint x="8" y="9" as="offset" />
          </mxGeometry>
        </mxCell>
        <mxCell id="mGsSKt4sZH0ih6lEQOX0-39" style="edgeStyle=orthogonalEdgeStyle;rounded=0;orthogonalLoop=1;jettySize=auto;html=1;exitX=1;exitY=0.5;exitDx=0;exitDy=0;entryX=0;entryY=0.5;entryDx=0;entryDy=0;" edge="1" parent="mGsSKt4sZH0ih6lEQOX0-45" source="mGsSKt4sZH0ih6lEQOX0-27" target="mGsSKt4sZH0ih6lEQOX0-38">
          <mxGeometry relative="1" as="geometry" />
        </mxCell>
        <mxCell id="mGsSKt4sZH0ih6lEQOX0-40" value="Sim" style="edgeLabel;html=1;align=center;verticalAlign=middle;resizable=0;points=[];" vertex="1" connectable="0" parent="mGsSKt4sZH0ih6lEQOX0-39">
          <mxGeometry x="-0.1862" y="1" relative="1" as="geometry">
            <mxPoint y="-9" as="offset" />
          </mxGeometry>
        </mxCell>
        <mxCell id="mGsSKt4sZH0ih6lEQOX0-27" value="Digitou&amp;nbsp;&lt;div&gt;a senha&amp;nbsp;&lt;div&gt;correta ?&lt;/div&gt;&lt;/div&gt;" style="rhombus;whiteSpace=wrap;html=1;shadow=0;fontFamily=Helvetica;fontSize=12;align=center;strokeWidth=1;spacing=6;spacingTop=-4;" vertex="1" parent="mGsSKt4sZH0ih6lEQOX0-45">
          <mxGeometry x="137.17000000000002" y="170" width="100" height="80" as="geometry" />
        </mxCell>
        <mxCell id="mGsSKt4sZH0ih6lEQOX0-41" style="edgeStyle=orthogonalEdgeStyle;rounded=0;orthogonalLoop=1;jettySize=auto;html=1;exitX=0.5;exitY=1;exitDx=0;exitDy=0;entryX=0.5;entryY=1;entryDx=0;entryDy=0;" edge="1" parent="mGsSKt4sZH0ih6lEQOX0-45" source="mGsSKt4sZH0ih6lEQOX0-38" target="WIyWlLk6GJQsqaUBKTNV-11">
          <mxGeometry relative="1" as="geometry" />
        </mxCell>
        <mxCell id="mGsSKt4sZH0ih6lEQOX0-42" value="Não" style="edgeLabel;html=1;align=center;verticalAlign=middle;resizable=0;points=[];" vertex="1" connectable="0" parent="mGsSKt4sZH0ih6lEQOX0-41">
          <mxGeometry x="-0.7911" y="-1" relative="1" as="geometry">
            <mxPoint x="-3" y="-9" as="offset" />
          </mxGeometry>
        </mxCell>
        <mxCell id="mGsSKt4sZH0ih6lEQOX0-49" style="edgeStyle=orthogonalEdgeStyle;rounded=0;orthogonalLoop=1;jettySize=auto;html=1;exitX=1;exitY=0.5;exitDx=0;exitDy=0;entryX=0;entryY=0.5;entryDx=0;entryDy=0;" edge="1" parent="mGsSKt4sZH0ih6lEQOX0-45" source="mGsSKt4sZH0ih6lEQOX0-38" target="mGsSKt4sZH0ih6lEQOX0-48">
          <mxGeometry relative="1" as="geometry" />
        </mxCell>
        <mxCell id="mGsSKt4sZH0ih6lEQOX0-38" value="Conta já verificada&amp;nbsp;&lt;div&gt;pelo link ?&lt;/div&gt;" style="rhombus;whiteSpace=wrap;html=1;shadow=0;fontFamily=Helvetica;fontSize=12;align=center;strokeWidth=1;spacing=6;spacingTop=-4;" vertex="1" parent="mGsSKt4sZH0ih6lEQOX0-45">
          <mxGeometry x="271.17" y="170" width="100" height="80" as="geometry" />
        </mxCell>
        <mxCell id="mGsSKt4sZH0ih6lEQOX0-48" value="Entrou&amp;nbsp;&lt;div&gt;com sucesso&lt;/div&gt;" style="rounded=1;whiteSpace=wrap;html=1;fontSize=12;glass=0;strokeWidth=1;shadow=0;" vertex="1" parent="mGsSKt4sZH0ih6lEQOX0-45">
          <mxGeometry x="390" y="190" width="80" height="40" as="geometry" />
        </mxCell>
        <mxCell id="mGsSKt4sZH0ih6lEQOX0-50" value="Recuperação" style="swimlane;dashed=1;align=right;" vertex="1" parent="WIyWlLk6GJQsqaUBKTNV-1">
          <mxGeometry x="540" y="240" width="280" height="240" as="geometry" />
        </mxCell>
        <mxCell id="mGsSKt4sZH0ih6lEQOX0-51" style="edgeStyle=orthogonalEdgeStyle;rounded=0;orthogonalLoop=1;jettySize=auto;html=1;exitX=0.5;exitY=1;exitDx=0;exitDy=0;entryX=0.5;entryY=0;entryDx=0;entryDy=0;" edge="1" parent="mGsSKt4sZH0ih6lEQOX0-50" source="mGsSKt4sZH0ih6lEQOX0-16" target="mGsSKt4sZH0ih6lEQOX0-19">
          <mxGeometry relative="1" as="geometry" />
        </mxCell>
        <mxCell id="mGsSKt4sZH0ih6lEQOX0-16" value="Formulário de pedido de recuperação" style="rounded=1;whiteSpace=wrap;html=1;fontSize=12;glass=0;strokeWidth=1;shadow=0;" vertex="1" parent="mGsSKt4sZH0ih6lEQOX0-50">
          <mxGeometry x="45" y="40" width="90" height="40" as="geometry" />
        </mxCell>
        <mxCell id="mGsSKt4sZH0ih6lEQOX0-52" style="edgeStyle=orthogonalEdgeStyle;rounded=0;orthogonalLoop=1;jettySize=auto;html=1;exitX=0.5;exitY=1;exitDx=0;exitDy=0;entryX=0.5;entryY=0;entryDx=0;entryDy=0;" edge="1" parent="mGsSKt4sZH0ih6lEQOX0-50" source="mGsSKt4sZH0ih6lEQOX0-19" target="mGsSKt4sZH0ih6lEQOX0-20">
          <mxGeometry relative="1" as="geometry" />
        </mxCell>
        <mxCell id="mGsSKt4sZH0ih6lEQOX0-19" value="E-mail de recuperação é enviado" style="rounded=1;whiteSpace=wrap;html=1;fontSize=12;glass=0;strokeWidth=1;shadow=0;" vertex="1" parent="mGsSKt4sZH0ih6lEQOX0-50">
          <mxGeometry x="35" y="110" width="110" height="40" as="geometry" />
        </mxCell>
        <mxCell id="mGsSKt4sZH0ih6lEQOX0-20" value="Usuário cadastra nova senha pelo link" style="rounded=1;whiteSpace=wrap;html=1;fontSize=12;glass=0;strokeWidth=1;shadow=0;" vertex="1" parent="mGsSKt4sZH0ih6lEQOX0-50">
          <mxGeometry x="30" y="180" width="120" height="40" as="geometry" />
        </mxCell>
        <mxCell id="mGsSKt4sZH0ih6lEQOX0-22" style="edgeStyle=orthogonalEdgeStyle;rounded=0;orthogonalLoop=1;jettySize=auto;html=1;exitX=0.5;exitY=0;exitDx=0;exitDy=0;" edge="1" parent="WIyWlLk6GJQsqaUBKTNV-1" source="mGsSKt4sZH0ih6lEQOX0-14" target="mGsSKt4sZH0ih6lEQOX0-16">
          <mxGeometry relative="1" as="geometry">
            <mxPoint x="257.17" y="299.9999999999999" as="targetPoint" />
            <Array as="points">
              <mxPoint x="197" y="300" />
            </Array>
          </mxGeometry>
        </mxCell>
        <mxCell id="mGsSKt4sZH0ih6lEQOX0-23" value="Sim" style="edgeLabel;html=1;align=center;verticalAlign=middle;resizable=0;points=[];" vertex="1" connectable="0" parent="mGsSKt4sZH0ih6lEQOX0-22">
          <mxGeometry x="0.2069" y="1" relative="1" as="geometry">
            <mxPoint x="3" y="11" as="offset" />
          </mxGeometry>
        </mxCell>
        <mxCell id="mGsSKt4sZH0ih6lEQOX0-55" style="edgeStyle=orthogonalEdgeStyle;rounded=0;orthogonalLoop=1;jettySize=auto;html=1;exitX=0.5;exitY=1;exitDx=0;exitDy=0;entryX=0.5;entryY=0;entryDx=0;entryDy=0;" edge="1" parent="WIyWlLk6GJQsqaUBKTNV-1" source="mGsSKt4sZH0ih6lEQOX0-54" target="WIyWlLk6GJQsqaUBKTNV-7">
          <mxGeometry relative="1" as="geometry" />
        </mxCell>
        <mxCell id="mGsSKt4sZH0ih6lEQOX0-54" value="OU" style="ellipse;whiteSpace=wrap;html=1;aspect=fixed;" vertex="1" parent="WIyWlLk6GJQsqaUBKTNV-1">
          <mxGeometry x="70" y="200" width="20" height="20" as="geometry" />
        </mxCell>
        <mxCell id="mGsSKt4sZH0ih6lEQOX0-60" style="edgeStyle=orthogonalEdgeStyle;rounded=0;orthogonalLoop=1;jettySize=auto;html=1;exitX=0;exitY=0.5;exitDx=0;exitDy=0;entryX=1;entryY=0.5;entryDx=0;entryDy=0;" edge="1" parent="WIyWlLk6GJQsqaUBKTNV-1" source="mGsSKt4sZH0ih6lEQOX0-57" target="mGsSKt4sZH0ih6lEQOX0-54">
          <mxGeometry relative="1" as="geometry" />
        </mxCell>
        <mxCell id="mGsSKt4sZH0ih6lEQOX0-57" value="OU" style="ellipse;whiteSpace=wrap;html=1;aspect=fixed;" vertex="1" parent="WIyWlLk6GJQsqaUBKTNV-1">
          <mxGeometry x="720" y="200" width="20" height="20" as="geometry" />
        </mxCell>
        <mxCell id="mGsSKt4sZH0ih6lEQOX0-59" style="edgeStyle=orthogonalEdgeStyle;rounded=0;orthogonalLoop=1;jettySize=auto;html=1;exitX=1;exitY=0.5;exitDx=0;exitDy=0;entryX=0.5;entryY=1;entryDx=0;entryDy=0;" edge="1" parent="WIyWlLk6GJQsqaUBKTNV-1" source="mGsSKt4sZH0ih6lEQOX0-20" target="mGsSKt4sZH0ih6lEQOX0-57">
          <mxGeometry relative="1" as="geometry">
            <Array as="points">
              <mxPoint x="730" y="440" />
            </Array>
          </mxGeometry>
        </mxCell>
        <mxCell id="mGsSKt4sZH0ih6lEQOX0-63" value="Gestão do Saldo" style="swimlane;whiteSpace=wrap;html=1;dashed=1;align=right;" vertex="1" parent="WIyWlLk6GJQsqaUBKTNV-1">
          <mxGeometry x="10" y="605" width="390" height="235" as="geometry" />
        </mxCell>
        <mxCell id="mGsSKt4sZH0ih6lEQOX0-68" style="edgeStyle=orthogonalEdgeStyle;rounded=0;orthogonalLoop=1;jettySize=auto;html=1;exitX=0.5;exitY=1;exitDx=0;exitDy=0;entryX=0.5;entryY=0;entryDx=0;entryDy=0;" edge="1" parent="mGsSKt4sZH0ih6lEQOX0-63" source="mGsSKt4sZH0ih6lEQOX0-65" target="mGsSKt4sZH0ih6lEQOX0-66">
          <mxGeometry relative="1" as="geometry" />
        </mxCell>
        <mxCell id="mGsSKt4sZH0ih6lEQOX0-65" value="Página de Extrato" style="rounded=1;whiteSpace=wrap;html=1;fontSize=12;glass=0;strokeWidth=1;shadow=0;" vertex="1" parent="mGsSKt4sZH0ih6lEQOX0-63">
          <mxGeometry x="30" y="35" width="90" height="40" as="geometry" />
        </mxCell>
        <mxCell id="mGsSKt4sZH0ih6lEQOX0-69" style="edgeStyle=orthogonalEdgeStyle;rounded=0;orthogonalLoop=1;jettySize=auto;html=1;exitX=0.5;exitY=1;exitDx=0;exitDy=0;entryX=0.5;entryY=0;entryDx=0;entryDy=0;" edge="1" parent="mGsSKt4sZH0ih6lEQOX0-63" source="mGsSKt4sZH0ih6lEQOX0-66" target="mGsSKt4sZH0ih6lEQOX0-67">
          <mxGeometry relative="1" as="geometry" />
        </mxCell>
        <mxCell id="mGsSKt4sZH0ih6lEQOX0-66" value="Verifica Saldo e Histórico" style="rounded=1;whiteSpace=wrap;html=1;fontSize=12;glass=0;strokeWidth=1;shadow=0;" vertex="1" parent="mGsSKt4sZH0ih6lEQOX0-63">
          <mxGeometry x="29" y="95" width="90" height="40" as="geometry" />
        </mxCell>
        <mxCell id="mGsSKt4sZH0ih6lEQOX0-74" style="edgeStyle=orthogonalEdgeStyle;rounded=0;orthogonalLoop=1;jettySize=auto;html=1;exitX=1;exitY=0.5;exitDx=0;exitDy=0;entryX=0.5;entryY=0;entryDx=0;entryDy=0;" edge="1" parent="mGsSKt4sZH0ih6lEQOX0-63" source="mGsSKt4sZH0ih6lEQOX0-67" target="mGsSKt4sZH0ih6lEQOX0-73">
          <mxGeometry relative="1" as="geometry">
            <Array as="points">
              <mxPoint x="150" y="175" />
              <mxPoint x="150" y="35" />
              <mxPoint x="270" y="35" />
            </Array>
          </mxGeometry>
        </mxCell>
        <mxCell id="mGsSKt4sZH0ih6lEQOX0-67" value="Clica em&amp;nbsp;&lt;div&gt;&quot;&lt;b&gt;Adicionar&lt;/b&gt;&lt;span style=&quot;background-color: initial;&quot;&gt;&quot;&lt;/span&gt;&lt;/div&gt;" style="rounded=1;whiteSpace=wrap;html=1;fontSize=12;glass=0;strokeWidth=1;shadow=0;" vertex="1" parent="mGsSKt4sZH0ih6lEQOX0-63">
          <mxGeometry x="29" y="155" width="90" height="40" as="geometry" />
        </mxCell>
        <mxCell id="mGsSKt4sZH0ih6lEQOX0-78" style="edgeStyle=orthogonalEdgeStyle;rounded=0;orthogonalLoop=1;jettySize=auto;html=1;exitX=0.5;exitY=1;exitDx=0;exitDy=0;entryX=0.5;entryY=0;entryDx=0;entryDy=0;" edge="1" parent="mGsSKt4sZH0ih6lEQOX0-63" source="mGsSKt4sZH0ih6lEQOX0-73" target="mGsSKt4sZH0ih6lEQOX0-76">
          <mxGeometry relative="1" as="geometry" />
        </mxCell>
        <mxCell id="mGsSKt4sZH0ih6lEQOX0-79" style="edgeStyle=orthogonalEdgeStyle;rounded=0;orthogonalLoop=1;jettySize=auto;html=1;exitX=1;exitY=0.5;exitDx=0;exitDy=0;entryX=0.5;entryY=0;entryDx=0;entryDy=0;" edge="1" parent="mGsSKt4sZH0ih6lEQOX0-63" source="mGsSKt4sZH0ih6lEQOX0-73" target="mGsSKt4sZH0ih6lEQOX0-77">
          <mxGeometry relative="1" as="geometry" />
        </mxCell>
        <mxCell id="mGsSKt4sZH0ih6lEQOX0-80" style="edgeStyle=orthogonalEdgeStyle;rounded=0;orthogonalLoop=1;jettySize=auto;html=1;exitX=0;exitY=0.5;exitDx=0;exitDy=0;entryX=0.5;entryY=0;entryDx=0;entryDy=0;" edge="1" parent="mGsSKt4sZH0ih6lEQOX0-63" source="mGsSKt4sZH0ih6lEQOX0-73" target="mGsSKt4sZH0ih6lEQOX0-75">
          <mxGeometry relative="1" as="geometry" />
        </mxCell>
        <mxCell id="mGsSKt4sZH0ih6lEQOX0-73" value="Meio de Pagamento" style="rhombus;whiteSpace=wrap;html=1;shadow=0;fontFamily=Helvetica;fontSize=12;align=center;strokeWidth=1;spacing=6;spacingTop=-4;" vertex="1" parent="mGsSKt4sZH0ih6lEQOX0-63">
          <mxGeometry x="220" y="45" width="100" height="65" as="geometry" />
        </mxCell>
        <mxCell id="mGsSKt4sZH0ih6lEQOX0-75" value="Voucher" style="rounded=1;whiteSpace=wrap;html=1;fontSize=12;glass=0;strokeWidth=1;shadow=0;" vertex="1" parent="mGsSKt4sZH0ih6lEQOX0-63">
          <mxGeometry x="165" y="125" width="55" height="40" as="geometry" />
        </mxCell>
        <mxCell id="mGsSKt4sZH0ih6lEQOX0-84" style="edgeStyle=orthogonalEdgeStyle;rounded=0;orthogonalLoop=1;jettySize=auto;html=1;exitX=0.5;exitY=1;exitDx=0;exitDy=0;entryX=0.5;entryY=0;entryDx=0;entryDy=0;" edge="1" parent="mGsSKt4sZH0ih6lEQOX0-63" source="mGsSKt4sZH0ih6lEQOX0-76" target="mGsSKt4sZH0ih6lEQOX0-81">
          <mxGeometry relative="1" as="geometry" />
        </mxCell>
        <mxCell id="mGsSKt4sZH0ih6lEQOX0-76" value="PIX" style="rounded=1;whiteSpace=wrap;html=1;fontSize=12;glass=0;strokeWidth=1;shadow=0;" vertex="1" parent="mGsSKt4sZH0ih6lEQOX0-63">
          <mxGeometry x="242.5" y="125" width="55" height="40" as="geometry" />
        </mxCell>
        <mxCell id="mGsSKt4sZH0ih6lEQOX0-77" value="Cartão" style="rounded=1;whiteSpace=wrap;html=1;fontSize=12;glass=0;strokeWidth=1;shadow=0;" vertex="1" parent="mGsSKt4sZH0ih6lEQOX0-63">
          <mxGeometry x="320" y="125" width="55" height="40" as="geometry" />
        </mxCell>
        <mxCell id="mGsSKt4sZH0ih6lEQOX0-81" value="Saldo da conta é incrementado" style="rounded=1;whiteSpace=wrap;html=1;fontSize=12;glass=0;strokeWidth=1;shadow=0;" vertex="1" parent="mGsSKt4sZH0ih6lEQOX0-63">
          <mxGeometry x="165" y="195" width="205" height="35" as="geometry" />
        </mxCell>
        <mxCell id="mGsSKt4sZH0ih6lEQOX0-83" style="edgeStyle=orthogonalEdgeStyle;rounded=0;orthogonalLoop=1;jettySize=auto;html=1;exitX=0.5;exitY=1;exitDx=0;exitDy=0;entryX=0.127;entryY=-0.057;entryDx=0;entryDy=0;entryPerimeter=0;" edge="1" parent="mGsSKt4sZH0ih6lEQOX0-63" source="mGsSKt4sZH0ih6lEQOX0-75" target="mGsSKt4sZH0ih6lEQOX0-81">
          <mxGeometry relative="1" as="geometry" />
        </mxCell>
        <mxCell id="mGsSKt4sZH0ih6lEQOX0-85" style="edgeStyle=orthogonalEdgeStyle;rounded=0;orthogonalLoop=1;jettySize=auto;html=1;exitX=0.5;exitY=1;exitDx=0;exitDy=0;entryX=0.891;entryY=-0.057;entryDx=0;entryDy=0;entryPerimeter=0;" edge="1" parent="mGsSKt4sZH0ih6lEQOX0-63" source="mGsSKt4sZH0ih6lEQOX0-77" target="mGsSKt4sZH0ih6lEQOX0-81">
          <mxGeometry relative="1" as="geometry" />
        </mxCell>
        <mxCell id="mGsSKt4sZH0ih6lEQOX0-64" value="Compra de Produto" style="swimlane;whiteSpace=wrap;html=1;dashed=1;align=right;" vertex="1" parent="WIyWlLk6GJQsqaUBKTNV-1">
          <mxGeometry x="470" y="605" width="350" height="235" as="geometry" />
        </mxCell>
        <mxCell id="mGsSKt4sZH0ih6lEQOX0-90" style="edgeStyle=orthogonalEdgeStyle;rounded=0;orthogonalLoop=1;jettySize=auto;html=1;exitX=0.5;exitY=1;exitDx=0;exitDy=0;entryX=0.5;entryY=0;entryDx=0;entryDy=0;" edge="1" parent="mGsSKt4sZH0ih6lEQOX0-64" source="mGsSKt4sZH0ih6lEQOX0-87" target="mGsSKt4sZH0ih6lEQOX0-89">
          <mxGeometry relative="1" as="geometry" />
        </mxCell>
        <mxCell id="mGsSKt4sZH0ih6lEQOX0-87" value="Página de Listagem dos&lt;div&gt;Pontos de Venda&lt;/div&gt;" style="rounded=1;whiteSpace=wrap;html=1;fontSize=12;glass=0;strokeWidth=1;shadow=0;" vertex="1" parent="mGsSKt4sZH0ih6lEQOX0-64">
          <mxGeometry x="15" y="35" width="105" height="40" as="geometry" />
        </mxCell>
        <mxCell id="mGsSKt4sZH0ih6lEQOX0-92" style="edgeStyle=orthogonalEdgeStyle;rounded=0;orthogonalLoop=1;jettySize=auto;html=1;exitX=0.5;exitY=1;exitDx=0;exitDy=0;entryX=0.5;entryY=0;entryDx=0;entryDy=0;" edge="1" parent="mGsSKt4sZH0ih6lEQOX0-64" source="mGsSKt4sZH0ih6lEQOX0-89" target="mGsSKt4sZH0ih6lEQOX0-91">
          <mxGeometry relative="1" as="geometry" />
        </mxCell>
        <mxCell id="mGsSKt4sZH0ih6lEQOX0-89" value="Acessa detalhe do&lt;div&gt;Ponto de Venda&lt;/div&gt;" style="rounded=1;whiteSpace=wrap;html=1;fontSize=12;glass=0;strokeWidth=1;shadow=0;" vertex="1" parent="mGsSKt4sZH0ih6lEQOX0-64">
          <mxGeometry x="15" y="95" width="105" height="40" as="geometry" />
        </mxCell>
        <mxCell id="mGsSKt4sZH0ih6lEQOX0-94" style="edgeStyle=orthogonalEdgeStyle;rounded=0;orthogonalLoop=1;jettySize=auto;html=1;exitX=1;exitY=0.5;exitDx=0;exitDy=0;entryX=0;entryY=0.5;entryDx=0;entryDy=0;" edge="1" parent="mGsSKt4sZH0ih6lEQOX0-64" source="mGsSKt4sZH0ih6lEQOX0-91" target="mGsSKt4sZH0ih6lEQOX0-93">
          <mxGeometry relative="1" as="geometry" />
        </mxCell>
        <mxCell id="mGsSKt4sZH0ih6lEQOX0-91" value="Acessa detalhe de um dos produtos" style="rounded=1;whiteSpace=wrap;html=1;fontSize=12;glass=0;strokeWidth=1;shadow=0;" vertex="1" parent="mGsSKt4sZH0ih6lEQOX0-64">
          <mxGeometry x="15" y="155" width="105" height="40" as="geometry" />
        </mxCell>
        <mxCell id="mGsSKt4sZH0ih6lEQOX0-97" style="edgeStyle=orthogonalEdgeStyle;rounded=0;orthogonalLoop=1;jettySize=auto;html=1;exitX=0.5;exitY=0;exitDx=0;exitDy=0;entryX=0.5;entryY=1;entryDx=0;entryDy=0;" edge="1" parent="mGsSKt4sZH0ih6lEQOX0-64" source="mGsSKt4sZH0ih6lEQOX0-93" target="mGsSKt4sZH0ih6lEQOX0-96">
          <mxGeometry relative="1" as="geometry" />
        </mxCell>
        <mxCell id="mGsSKt4sZH0ih6lEQOX0-93" value="Botão &quot;&lt;b&gt;Comprar&lt;/b&gt;&quot;" style="rounded=1;whiteSpace=wrap;html=1;fontSize=12;glass=0;strokeWidth=1;shadow=0;" vertex="1" parent="mGsSKt4sZH0ih6lEQOX0-64">
          <mxGeometry x="140" y="155" width="105" height="40" as="geometry" />
        </mxCell>
        <mxCell id="mGsSKt4sZH0ih6lEQOX0-99" style="edgeStyle=orthogonalEdgeStyle;rounded=0;orthogonalLoop=1;jettySize=auto;html=1;exitX=1;exitY=0.5;exitDx=0;exitDy=0;entryX=0;entryY=0.5;entryDx=0;entryDy=0;" edge="1" parent="mGsSKt4sZH0ih6lEQOX0-64" source="mGsSKt4sZH0ih6lEQOX0-96" target="mGsSKt4sZH0ih6lEQOX0-98">
          <mxGeometry relative="1" as="geometry">
            <Array as="points">
              <mxPoint x="250" y="115" />
              <mxPoint x="250" y="115" />
            </Array>
          </mxGeometry>
        </mxCell>
        <mxCell id="mGsSKt4sZH0ih6lEQOX0-100" value="Sim" style="edgeLabel;html=1;align=center;verticalAlign=middle;resizable=0;points=[];" vertex="1" connectable="0" parent="mGsSKt4sZH0ih6lEQOX0-99">
          <mxGeometry x="-0.3399" y="1" relative="1" as="geometry">
            <mxPoint x="-3" y="-9" as="offset" />
          </mxGeometry>
        </mxCell>
        <mxCell id="mGsSKt4sZH0ih6lEQOX0-96" value="Saldo&lt;div&gt;suficiente ?&lt;/div&gt;" style="rhombus;whiteSpace=wrap;html=1;shadow=0;fontFamily=Helvetica;fontSize=12;align=center;strokeWidth=1;spacing=6;spacingTop=-4;" vertex="1" parent="mGsSKt4sZH0ih6lEQOX0-64">
          <mxGeometry x="142.5" y="87.5" width="100" height="55" as="geometry" />
        </mxCell>
        <mxCell id="mGsSKt4sZH0ih6lEQOX0-106" style="edgeStyle=orthogonalEdgeStyle;rounded=0;orthogonalLoop=1;jettySize=auto;html=1;exitX=0.5;exitY=1;exitDx=0;exitDy=0;entryX=0.5;entryY=0;entryDx=0;entryDy=0;" edge="1" parent="mGsSKt4sZH0ih6lEQOX0-64" source="mGsSKt4sZH0ih6lEQOX0-98" target="mGsSKt4sZH0ih6lEQOX0-105">
          <mxGeometry relative="1" as="geometry" />
        </mxCell>
        <mxCell id="mGsSKt4sZH0ih6lEQOX0-98" value="Liberação dispositivo IoT" style="rounded=1;whiteSpace=wrap;html=1;fontSize=12;glass=0;strokeWidth=1;shadow=0;" vertex="1" parent="mGsSKt4sZH0ih6lEQOX0-64">
          <mxGeometry x="260" y="92.5" width="78" height="45" as="geometry" />
        </mxCell>
        <mxCell id="mGsSKt4sZH0ih6lEQOX0-105" value="Fim" style="rounded=1;whiteSpace=wrap;html=1;fontSize=12;glass=0;strokeWidth=1;shadow=0;fillColor=#f5f5f5;fontColor=#333333;strokeColor=#666666;" vertex="1" parent="mGsSKt4sZH0ih6lEQOX0-64">
          <mxGeometry x="260" y="155" width="78" height="40" as="geometry" />
        </mxCell>
        <mxCell id="mGsSKt4sZH0ih6lEQOX0-72" style="edgeStyle=orthogonalEdgeStyle;rounded=0;orthogonalLoop=1;jettySize=auto;html=1;exitX=0;exitY=0.5;exitDx=0;exitDy=0;entryX=0.5;entryY=0;entryDx=0;entryDy=0;" edge="1" parent="WIyWlLk6GJQsqaUBKTNV-1" source="mGsSKt4sZH0ih6lEQOX0-70" target="mGsSKt4sZH0ih6lEQOX0-65">
          <mxGeometry relative="1" as="geometry" />
        </mxCell>
        <mxCell id="mGsSKt4sZH0ih6lEQOX0-88" style="edgeStyle=orthogonalEdgeStyle;rounded=0;orthogonalLoop=1;jettySize=auto;html=1;exitX=1;exitY=0.5;exitDx=0;exitDy=0;entryX=0.5;entryY=0;entryDx=0;entryDy=0;" edge="1" parent="WIyWlLk6GJQsqaUBKTNV-1" source="mGsSKt4sZH0ih6lEQOX0-70" target="mGsSKt4sZH0ih6lEQOX0-87">
          <mxGeometry relative="1" as="geometry" />
        </mxCell>
        <mxCell id="mGsSKt4sZH0ih6lEQOX0-70" value="" style="rhombus;whiteSpace=wrap;html=1;shadow=0;fontFamily=Helvetica;fontSize=12;align=center;strokeWidth=1;spacing=6;spacingTop=-4;" vertex="1" parent="WIyWlLk6GJQsqaUBKTNV-1">
          <mxGeometry x="430" y="570" width="20" height="20" as="geometry" />
        </mxCell>
        <mxCell id="mGsSKt4sZH0ih6lEQOX0-71" style="edgeStyle=orthogonalEdgeStyle;rounded=0;orthogonalLoop=1;jettySize=auto;html=1;exitX=0.5;exitY=1;exitDx=0;exitDy=0;entryX=0.5;entryY=0;entryDx=0;entryDy=0;" edge="1" parent="WIyWlLk6GJQsqaUBKTNV-1" source="mGsSKt4sZH0ih6lEQOX0-48" target="mGsSKt4sZH0ih6lEQOX0-70">
          <mxGeometry relative="1" as="geometry" />
        </mxCell>
        <mxCell id="mGsSKt4sZH0ih6lEQOX0-86" style="edgeStyle=orthogonalEdgeStyle;rounded=0;orthogonalLoop=1;jettySize=auto;html=1;exitX=1;exitY=0.5;exitDx=0;exitDy=0;entryX=0.5;entryY=1;entryDx=0;entryDy=0;" edge="1" parent="WIyWlLk6GJQsqaUBKTNV-1" source="mGsSKt4sZH0ih6lEQOX0-81" target="mGsSKt4sZH0ih6lEQOX0-70">
          <mxGeometry relative="1" as="geometry" />
        </mxCell>
        <mxCell id="mGsSKt4sZH0ih6lEQOX0-102" style="edgeStyle=orthogonalEdgeStyle;rounded=0;orthogonalLoop=1;jettySize=auto;html=1;exitX=0.5;exitY=0;exitDx=0;exitDy=0;entryX=0.5;entryY=0;entryDx=0;entryDy=0;dashed=1;dashPattern=1 1;" edge="1" parent="WIyWlLk6GJQsqaUBKTNV-1" source="mGsSKt4sZH0ih6lEQOX0-96" target="mGsSKt4sZH0ih6lEQOX0-65">
          <mxGeometry relative="1" as="geometry">
            <Array as="points">
              <mxPoint x="662" y="550" />
              <mxPoint x="85" y="550" />
            </Array>
          </mxGeometry>
        </mxCell>
        <mxCell id="mGsSKt4sZH0ih6lEQOX0-103" value="Não" style="edgeLabel;html=1;align=center;verticalAlign=middle;resizable=0;points=[];" vertex="1" connectable="0" parent="mGsSKt4sZH0ih6lEQOX0-102">
          <mxGeometry x="-0.9346" y="1" relative="1" as="geometry">
            <mxPoint x="14" y="14" as="offset" />
          </mxGeometry>
        </mxCell>
      </root>
    </mxGraphModel>
  </diagram>
</mxfile>
